<?xml version="1.0" encoding="UTF-8"?>
<!DOCTYPE svg>
<svg xmlns="http://www.w3.org/2000/svg" version="1.1" width="500px" height="500px" style="shape-rendering:geometricPrecision; text-rendering:geometricPrecision; image-rendering:optimizeQuality; clip-rule:evenodd">
    <g><path style="opacity:1" fill="#e8fce8" d="M 269.5,38.5 C 268.391,38.4431 267.391,38.1098 266.5,37.5C 264.973,33.5582 263.306,33.5582 261.5,37.5C 260.925,39.4113 259.925,41.078 258.5,42.5C 257.833,42.8333 257.167,43.1667 256.5,43.5C 256.685,41.8042 257.519,40.4709 259,39.5C 261.208,25.3113 264.708,24.978 269.5,38.5 Z"/></g>
    <g><path style="opacity:1" fill="#7ac285" d="M 266.5,37.5 C 264.833,37.5 263.167,37.5 261.5,37.5C 263.306,33.5582 264.973,33.5582 266.5,37.5 Z"/></g>
    <g><path style="opacity:1" fill="#82d487" d="M 258.5,42.5 C 257.717,46.6052 255.717,49.9385 252.5,52.5C 253.494,49.3435 254.828,46.3435 256.5,43.5C 257.167,43.1667 257.833,42.8333 258.5,42.5 Z"/></g>
    <g><path style="opacity:1" fill="#7fd48a" d="M 277.5,53.5 C 280.882,56.6417 283.548,60.3084 285.5,64.5C 285.5,64.8333 285.5,65.1667 285.5,65.5C 282.915,62.8768 280.415,60.2101 278,57.5C 277.51,56.2068 277.343,54.8734 277.5,53.5 Z"/></g>
    <g><path style="opacity:1" fill="#eafce8" d="M 246.5,58.5 C 245.408,61.0237 244.074,63.357 242.5,65.5C 241.831,68.8489 240.164,71.5156 237.5,73.5C 236.542,73.9528 235.708,74.6195 235,75.5C 233.63,78.9915 232.13,82.3248 230.5,85.5C 230.167,85.5 229.833,85.5 229.5,85.5C 231.471,80.212 233.471,74.8787 235.5,69.5C 236.675,69.719 237.675,69.3857 238.5,68.5C 239.917,65.3297 241.584,62.3297 243.5,59.5C 244.417,58.8728 245.417,58.5394 246.5,58.5 Z"/></g>
    <g><path style="opacity:1" fill="#b3eab1" d="M 249.5,56.5 C 247.976,59.0739 246.642,61.7406 245.5,64.5C 244.391,64.5569 243.391,64.8902 242.5,65.5C 244.074,63.357 245.408,61.0237 246.5,58.5C 246.973,57.0937 247.973,56.427 249.5,56.5 Z"/></g>
    <g><path style="opacity:1" fill="#b5e9b8" d="M 285.5,64.5 C 287.562,66.4101 289.062,68.7435 290,71.5C 291.154,72.7433 292.488,73.7433 294,74.5C 295.039,78.472 296.539,82.1386 298.5,85.5C 296.833,83.5 295.167,81.5 293.5,79.5C 293.657,78.1266 293.49,76.7932 293,75.5C 289.526,72.9564 287.026,69.6231 285.5,65.5C 285.5,65.1667 285.5,64.8333 285.5,64.5 Z"/></g>
    <g><path style="opacity:1" fill="#34b847" d="M 266.5,37.5 C 267.391,38.1098 268.391,38.4431 269.5,38.5C 271.892,43.616 274.559,48.616 277.5,53.5C 277.343,54.8734 277.51,56.2068 278,57.5C 280.415,60.2101 282.915,62.8768 285.5,65.5C 287.026,69.6231 289.526,72.9564 293,75.5C 293.49,76.7932 293.657,78.1266 293.5,79.5C 289.407,75.898 286.241,71.5647 284,66.5C 282.837,68.2852 282.17,70.2852 282,72.5C 281.333,73.8333 280.667,73.8333 280,72.5C 279.365,71.0337 278.531,69.7003 277.5,68.5C 278.715,66.7845 279.715,64.9512 280.5,63C 280.291,61.1285 279.291,59.9619 277.5,59.5C 275.675,61.8165 274.342,64.4831 273.5,67.5C 275.096,71.0344 276.429,74.7011 277.5,78.5C 276.194,75.6613 274.194,73.3279 271.5,71.5C 271.267,69.9382 270.6,68.6049 269.5,67.5C 269.586,66.5041 269.252,65.6708 268.5,65C 265.518,64.502 262.518,64.3354 259.5,64.5C 259.371,66.2161 259.038,67.8828 258.5,69.5C 257.5,70.1667 256.5,70.8333 255.5,71.5C 255.02,68.3148 255.686,65.4815 257.5,63C 262.528,62.4117 267.528,62.5784 272.5,63.5C 273.425,61.0099 274.425,58.5099 275.5,56C 274.485,50.8106 271.819,46.6439 267.5,43.5C 266.534,41.604 266.201,39.604 266.5,37.5 Z"/></g>
    <g><path style="opacity:1" fill="#98da9c" d="M 269.5,67.5 C 268.85,67.1961 268.183,66.8627 267.5,66.5C 266.504,72.7985 266.17,79.1318 266.5,85.5C 264.833,85.5 263.167,85.5 261.5,85.5C 261.829,79.7945 261.495,74.1278 260.5,68.5C 259.817,68.8627 259.15,69.1961 258.5,69.5C 259.038,67.8828 259.371,66.2161 259.5,64.5C 262.518,64.3354 265.518,64.502 268.5,65C 269.252,65.6708 269.586,66.5041 269.5,67.5 Z"/></g>
    <g><path style="opacity:1" fill="#dcfadc" d="M 261.5,85.5 C 260.677,88.4802 259.343,91.1469 257.5,93.5C 259.11,89.3302 260.11,84.9968 260.5,80.5C 260.679,77.8688 260.013,75.5355 258.5,73.5C 254.449,79.0449 250.616,84.7116 247,90.5C 245.629,92.0414 244.129,93.3747 242.5,94.5C 245.742,88.5848 249.409,82.9182 253.5,77.5C 254.167,75.5 254.833,73.5 255.5,71.5C 256.5,70.8333 257.5,70.1667 258.5,69.5C 259.15,69.1961 259.817,68.8627 260.5,68.5C 261.495,74.1278 261.829,79.7945 261.5,85.5 Z"/></g>
    <g><path style="opacity:1" fill="#3bb84d" d="M 245.5,64.5 C 243.032,68.0585 242.032,72.0585 242.5,76.5C 240.856,76.2865 239.356,76.6198 238,77.5C 236.555,80.0904 235.388,82.757 234.5,85.5C 233.5,85.5 232.5,85.5 231.5,85.5C 233.691,81.5927 235.691,77.5927 237.5,73.5C 240.164,71.5156 241.831,68.8489 242.5,65.5C 243.391,64.8902 244.391,64.5569 245.5,64.5 Z"/></g>
    <g><path style="opacity:1" fill="#0db830" d="M 261.5,37.5 C 263.167,37.5 264.833,37.5 266.5,37.5C 266.201,39.604 266.534,41.604 267.5,43.5C 271.819,46.6439 274.485,50.8106 275.5,56C 274.425,58.5099 273.425,61.0099 272.5,63.5C 267.528,62.5784 262.528,62.4117 257.5,63C 255.686,65.4815 255.02,68.3148 255.5,71.5C 254.833,73.5 254.167,75.5 253.5,77.5C 248.43,77.7375 245.93,80.4042 246,85.5C 243.364,89.4792 240.697,93.4792 238,97.5C 237.517,98.448 237.351,99.448 237.5,100.5C 233.967,105.569 230.967,110.902 228.5,116.5C 227.833,116.5 227.5,116.833 227.5,117.5C 226.504,117.414 225.671,117.748 225,118.5C 223.487,122.681 221.154,126.348 218,129.5C 217.51,130.793 217.343,132.127 217.5,133.5C 215.262,134.853 213.929,136.853 213.5,139.5C 211.738,140.262 210.738,141.596 210.5,143.5C 208.139,144.895 206.472,146.895 205.5,149.5C 204.89,150.391 204.557,151.391 204.5,152.5C 200.372,156.285 197.039,160.619 194.5,165.5C 192.357,167.769 190.69,170.436 189.5,173.5C 189.5,173.833 189.5,174.167 189.5,174.5C 187.179,175.832 185.513,177.832 184.5,180.5C 183.229,173.463 182.896,166.463 183.5,159.5C 186.474,156.908 188.474,153.575 189.5,149.5C 191.017,149.489 192.184,148.823 193,147.5C 196.881,138.511 202.214,130.511 209,123.5C 210.128,121.655 210.628,119.655 210.5,117.5C 211.496,117.586 212.329,117.252 213,116.5C 216.561,110.653 220.561,105.32 225,100.5C 226.311,95.0472 228.477,90.0472 231.5,85.5C 232.5,85.5 233.5,85.5 234.5,85.5C 235.388,82.757 236.555,80.0904 238,77.5C 239.356,76.6198 240.856,76.2865 242.5,76.5C 242.032,72.0585 243.032,68.0585 245.5,64.5C 246.642,61.7406 247.976,59.0739 249.5,56.5C 250.488,55.205 251.488,53.8717 252.5,52.5C 255.717,49.9385 257.717,46.6052 258.5,42.5C 259.925,41.078 260.925,39.4113 261.5,37.5 Z"/></g>
    <g><path style="opacity:1" fill="#a4e8a5" d="M 271.5,71.5 C 274.194,73.3279 276.194,75.6613 277.5,78.5C 277.5,78.8333 277.5,79.1667 277.5,79.5C 277.5,79.8333 277.5,80.1667 277.5,80.5C 275.14,77.7815 273.14,74.7815 271.5,71.5 Z"/></g>
    <g><path style="opacity:1" fill="#4fc05b" d="M 253.5,77.5 C 249.409,82.9182 245.742,88.5848 242.5,94.5C 240.833,96.5 239.167,98.5 237.5,100.5C 237.351,99.448 237.517,98.448 238,97.5C 240.697,93.4792 243.364,89.4792 246,85.5C 245.93,80.4042 248.43,77.7375 253.5,77.5 Z"/></g>
    <g><path style="opacity:1" fill="#b3edbe" d="M 237.5,73.5 C 235.691,77.5927 233.691,81.5927 231.5,85.5C 231.167,85.5 230.833,85.5 230.5,85.5C 232.13,82.3248 233.63,78.9915 235,75.5C 235.708,74.6195 236.542,73.9528 237.5,73.5 Z"/></g>
    <g><path style="opacity:1" fill="#04b82d" d="M 293.5,79.5 C 293.275,81.7159 294.108,83.3826 296,84.5C 296.497,87.146 296.664,89.8127 296.5,92.5C 297.833,92.5 299.167,92.5 300.5,92.5C 300.778,95.2903 300.111,97.7903 298.5,100C 299.828,103.124 300.828,106.29 301.5,109.5C 300.178,109.67 299.011,109.337 298,108.5C 293.454,99.0806 288.12,90.0806 282,81.5C 280.67,80.4178 279.17,79.7512 277.5,79.5C 277.5,79.1667 277.5,78.8333 277.5,78.5C 276.429,74.7011 275.096,71.0344 273.5,67.5C 274.342,64.4831 275.675,61.8165 277.5,59.5C 279.291,59.9619 280.291,61.1285 280.5,63C 279.715,64.9512 278.715,66.7845 277.5,68.5C 278.531,69.7003 279.365,71.0337 280,72.5C 280.667,73.8333 281.333,73.8333 282,72.5C 282.17,70.2852 282.837,68.2852 284,66.5C 286.241,71.5647 289.407,75.898 293.5,79.5 Z"/></g>
    <g><path style="opacity:1" fill="#4abc58" d="M 261.5,85.5 C 263.167,85.5 264.833,85.5 266.5,85.5C 267.5,87.5 268.5,89.5 269.5,91.5C 267.433,89.4877 265.1,89.1544 262.5,90.5C 261.764,92.5405 260.931,94.5405 260,96.5C 255.096,98.5702 253.263,102.237 254.5,107.5C 253.178,107.33 252.011,107.663 251,108.5C 250.822,112.121 249.155,114.788 246,116.5C 244.395,119.191 242.895,121.858 241.5,124.5C 241.394,121.921 242.061,119.588 243.5,117.5C 243.615,115.053 244.615,113.053 246.5,111.5C 248.887,109.087 251.054,106.42 253,103.5C 254.218,100.063 255.718,96.7295 257.5,93.5C 259.343,91.1469 260.677,88.4802 261.5,85.5 Z"/></g>
    <g><path style="opacity:1" fill="#aeebb0" d="M 277.5,80.5 C 281.041,83.379 283.374,87.0457 284.5,91.5C 282.57,89.0421 280.404,86.7087 278,84.5C 277.51,83.2068 277.343,81.8734 277.5,80.5 Z"/></g>
    <g><path style="opacity:1" fill="#8ada94" d="M 269.5,91.5 C 271.446,92.0347 272.446,93.368 272.5,95.5C 270.554,94.9653 269.554,93.632 269.5,91.5 Z"/></g>
    <g><path style="opacity:1" fill="#aceab3" d="M 300.5,87.5 C 303.241,89.9754 305.241,92.9754 306.5,96.5C 302.359,95.0147 300.359,92.0147 300.5,87.5 Z"/></g>
    <g><path style="opacity:1" fill="#b5eebc" d="M 242.5,94.5 C 239.032,102.627 234.366,109.96 228.5,116.5C 230.967,110.902 233.967,105.569 237.5,100.5C 239.167,98.5 240.833,96.5 242.5,94.5 Z"/></g>
    <g><path style="opacity:1" fill="#06b72e" d="M 269.5,91.5 C 269.554,93.632 270.554,94.9653 272.5,95.5C 272.552,101.33 274.885,105.996 279.5,109.5C 279.833,110.5 280.5,111.167 281.5,111.5C 281.53,114.852 282.863,117.518 285.5,119.5C 287.545,120.923 288.545,122.923 288.5,125.5C 289.878,130.583 292.545,134.916 296.5,138.5C 297.472,141.105 299.139,143.105 301.5,144.5C 301.5,144.833 301.5,145.167 301.5,145.5C 303.837,149.52 305.67,153.853 307,158.5C 309.28,160.614 311.113,162.947 312.5,165.5C 312.592,169.684 314.259,173.017 317.5,175.5C 317.387,178.049 318.054,180.382 319.5,182.5C 319.291,183.086 318.957,183.586 318.5,184C 321.394,187.644 324.394,191.144 327.5,194.5C 328.79,196.657 329.624,198.99 330,201.5C 331.039,202.71 332.206,203.71 333.5,204.5C 334.885,205.574 336.051,206.907 337,208.5C 339.425,216.369 343.591,223.036 349.5,228.5C 349.5,229.167 349.833,229.5 350.5,229.5C 352.347,233.024 354.014,236.69 355.5,240.5C 355.957,241.298 356.624,241.631 357.5,241.5C 359.165,249.83 363.165,256.83 369.5,262.5C 369.868,268.913 372.535,273.913 377.5,277.5C 376.916,280.285 377.916,281.952 380.5,282.5C 398.004,312.837 415.004,343.503 431.5,374.5C 413.657,375.786 395.657,375.786 377.5,374.5C 367.966,374.84 358.632,376.007 349.5,378C 301.18,378.004 253.18,379.171 205.5,381.5C 205.5,382.167 205.5,382.833 205.5,383.5C 187.83,383.333 170.164,383.5 152.5,384C 148.644,384.177 144.977,384.677 141.5,385.5C 125.167,385.5 108.833,385.5 92.5,385.5C 92.5,384.5 92.5,383.5 92.5,382.5C 103.583,383.549 114.583,382.882 125.5,380.5C 116.518,379.668 107.518,379.168 98.5,379C 97.677,376.075 98.177,373.242 100,370.5C 103.968,366.197 106.635,361.197 108,355.5C 109.512,354.743 110.846,353.743 112,352.5C 114.539,348.086 116.539,343.419 118,338.5C 121.301,334.708 123.468,330.375 124.5,325.5C 125.811,322.865 127.478,320.531 129.5,318.5C 132.66,315.625 134.493,311.958 135,307.5C 137.831,303.905 139.997,299.905 141.5,295.5C 141.5,294.833 141.5,294.167 141.5,293.5C 141.5,292.833 141.833,292.5 142.5,292.5C 143.272,291.306 144.272,290.306 145.5,289.5C 153.566,276.864 161.733,264.197 170,251.5C 170.444,247.249 171.611,243.249 173.5,239.5C 174.167,238.833 174.833,238.167 175.5,237.5C 176.458,237.047 177.292,236.381 178,235.5C 180.453,230.645 182.62,225.645 184.5,220.5C 185.979,218.322 187.312,215.988 188.5,213.5C 188.833,213.5 189.167,213.5 189.5,213.5C 192.94,211.891 195.107,209.224 196,205.5C 200.385,201.063 202.885,195.73 203.5,189.5C 205.854,189.162 208.187,188.662 210.5,188C 211.15,185.688 211.15,183.188 210.5,180.5C 212.212,176.848 214.379,173.515 217,170.5C 218.406,166.78 219.906,163.114 221.5,159.5C 221.5,158.833 221.5,158.167 221.5,157.5C 224.689,154.117 227.522,150.45 230,146.5C 230.788,143.037 232.454,140.037 235,137.5C 235.49,136.207 235.657,134.873 235.5,133.5C 236.719,129.954 238.719,126.954 241.5,124.5C 242.895,121.858 244.395,119.191 246,116.5C 249.155,114.788 250.822,112.121 251,108.5C 252.011,107.663 253.178,107.33 254.5,107.5C 253.263,102.237 255.096,98.5702 260,96.5C 260.931,94.5405 261.764,92.5405 262.5,90.5C 265.1,89.1544 267.433,89.4877 269.5,91.5 Z"/></g>
    <g><path style="opacity:1" fill="#a5e9ac" d="M 286.5,94.5 C 290.752,100.599 295.252,106.599 300,112.5C 300.608,114.154 301.108,115.821 301.5,117.5C 298.845,113.541 295.679,109.874 292,106.5C 289.903,102.585 288.069,98.5852 286.5,94.5 Z"/></g>
    <g><path style="opacity:1" fill="#d5f7d7" d="M 269.5,67.5 C 270.6,68.6049 271.267,69.9382 271.5,71.5C 270.206,70.7101 269.039,69.7101 268,68.5C 267.333,74.5 267.333,80.5 268,86.5C 271.999,88.8238 274.832,92.1571 276.5,96.5C 278.391,101.506 280.058,106.506 281.5,111.5C 280.5,111.167 279.833,110.5 279.5,109.5C 277.158,104.789 274.825,100.123 272.5,95.5C 272.446,93.368 271.446,92.0347 269.5,91.5C 268.5,89.5 267.5,87.5 266.5,85.5C 266.17,79.1318 266.504,72.7985 267.5,66.5C 268.183,66.8627 268.85,67.1961 269.5,67.5 Z"/></g>
    <g><path style="opacity:1" fill="#4ec061" d="M 229.5,85.5 C 229.833,85.5 230.167,85.5 230.5,85.5C 230.833,85.5 231.167,85.5 231.5,85.5C 228.477,90.0472 226.311,95.0472 225,100.5C 220.561,105.32 216.561,110.653 213,116.5C 212.329,117.252 211.496,117.586 210.5,117.5C 212.21,113.097 214.71,109.097 218,105.5C 222.11,98.9417 225.943,92.275 229.5,85.5 Z"/></g>
    <g><path style="opacity:1" fill="#d4f6d9" d="M 257.5,93.5 C 255.718,96.7295 254.218,100.063 253,103.5C 251.054,106.42 248.887,109.087 246.5,111.5C 247.772,107.546 248.939,103.546 250,99.5C 250.414,99.9574 250.914,100.291 251.5,100.5C 253.299,97.837 255.299,95.5037 257.5,93.5 Z"/></g>
    <g><path style="opacity:1" fill="#b1eaba" d="M 306.5,97.5 C 311.329,102.346 314.995,108.012 317.5,114.5C 315.139,112.806 313.139,110.806 311.5,108.5C 310.027,104.749 308.36,101.083 306.5,97.5 Z"/></g>
    <g><path style="opacity:1" fill="#49c15d" d="M 272.5,95.5 C 274.825,100.123 277.158,104.789 279.5,109.5C 274.885,105.996 272.552,101.33 272.5,95.5 Z"/></g>
    <g><path style="opacity:1" fill="#29b640" d="M 277.5,80.5 C 277.5,80.1667 277.5,79.8333 277.5,79.5C 279.17,79.7512 280.67,80.4178 282,81.5C 288.12,90.0806 293.454,99.0806 298,108.5C 299.011,109.337 300.178,109.67 301.5,109.5C 300.828,106.29 299.828,103.124 298.5,100C 300.111,97.7903 300.778,95.2903 300.5,92.5C 299.167,92.5 297.833,92.5 296.5,92.5C 296.664,89.8127 296.497,87.146 296,84.5C 294.108,83.3826 293.275,81.7159 293.5,79.5C 295.167,81.5 296.833,83.5 298.5,85.5C 299.167,86.1667 299.833,86.8333 300.5,87.5C 300.359,92.0147 302.359,95.0147 306.5,96.5C 306.5,96.8333 306.5,97.1667 306.5,97.5C 308.36,101.083 310.027,104.749 311.5,108.5C 307.878,105.278 304.712,101.612 302,97.5C 301.842,101.381 302.342,105.215 303.5,109C 303.306,110.86 302.972,112.693 302.5,114.5C 302.833,115.167 303.167,115.833 303.5,116.5C 308.132,113.635 309.132,114.468 306.5,119C 307.299,123.448 309.466,126.948 313,129.5C 315.054,132.941 316.554,136.608 317.5,140.5C 317.167,140.5 316.833,140.5 316.5,140.5C 315.312,138.012 313.979,135.678 312.5,133.5C 310.087,131.094 308.087,128.428 306.5,125.5C 306.657,124.127 306.49,122.793 306,121.5C 305.124,119.365 303.624,118.031 301.5,117.5C 301.108,115.821 300.608,114.154 300,112.5C 295.252,106.599 290.752,100.599 286.5,94.5C 286.573,92.9731 285.906,91.9731 284.5,91.5C 283.374,87.0457 281.041,83.379 277.5,80.5 Z"/></g>
    <g><path style="opacity:1" fill="#75d282" d="M 281.5,111.5 C 283.69,112.975 285.023,114.975 285.5,117.5C 285.5,118.167 285.5,118.833 285.5,119.5C 282.863,117.518 281.53,114.852 281.5,111.5 Z"/></g>
    <g><path style="opacity:1" fill="#40ba54" d="M 311.5,108.5 C 313.139,110.806 315.139,112.806 317.5,114.5C 318.316,117.107 319.983,119.107 322.5,120.5C 322.12,122.698 322.787,124.365 324.5,125.5C 326.338,130.665 329.338,134.999 333.5,138.5C 333.5,139.167 333.5,139.833 333.5,140.5C 332.167,140.5 330.833,140.5 329.5,140.5C 328.381,135.883 325.881,132.216 322,129.5C 321.667,127.5 321.333,125.5 321,123.5C 318.038,119.864 315.038,116.198 312,112.5C 311.51,111.207 311.343,109.873 311.5,108.5 Z"/></g>
    <g><path style="opacity:1" fill="#8bd994" d="M 301.5,117.5 C 303.624,118.031 305.124,119.365 306,121.5C 306.49,122.793 306.657,124.127 306.5,125.5C 304.347,123.206 302.68,120.54 301.5,117.5 Z"/></g>
    <g><path style="opacity:1" fill="#aceab3" d="M 227.5,117.5 C 225.326,121.848 223.159,126.182 221,130.5C 219.961,131.71 218.794,132.71 217.5,133.5C 217.343,132.127 217.51,130.793 218,129.5C 221.154,126.348 223.487,122.681 225,118.5C 225.671,117.748 226.504,117.414 227.5,117.5 Z"/></g>
    <g><path style="opacity:1" fill="#b7edbc" d="M 243.5,117.5 C 242.061,119.588 241.394,121.921 241.5,124.5C 238.719,126.954 236.719,129.954 235.5,133.5C 234.833,134.167 234.167,134.833 233.5,135.5C 233.343,134.127 233.51,132.793 234,131.5C 236.708,127.383 239.041,123.05 241,118.5C 241.671,117.748 242.504,117.414 243.5,117.5 Z"/></g>
    <g><path style="opacity:1" fill="#dcfadd" d="M 209.5,117.5 C 206.804,123.579 203.137,128.913 198.5,133.5C 198.248,130.68 198.748,128.014 200,125.5C 203.377,122.946 206.544,120.279 209.5,117.5 Z"/></g>
    <g><path style="opacity:1" fill="#bcf1c6" d="M 322.5,120.5 C 324.213,121.635 324.88,123.302 324.5,125.5C 322.787,124.365 322.12,122.698 322.5,120.5 Z"/></g>
    <g><path style="opacity:1" fill="#e1f9e0" d="M 285.5,117.5 C 288.39,118.899 289.89,121.232 290,124.5C 291.506,126.174 293.339,127.174 295.5,127.5C 295.287,130.451 295.954,133.118 297.5,135.5C 296.833,135.167 296.167,134.833 295.5,134.5C 293.518,131.19 291.185,128.19 288.5,125.5C 288.545,122.923 287.545,120.923 285.5,119.5C 285.5,118.833 285.5,118.167 285.5,117.5 Z"/></g>
    <g><path style="opacity:1" fill="#dff7dc" d="M 324.5,125.5 C 326.482,126.491 328.482,127.491 330.5,128.5C 331.08,132.027 332.08,135.36 333.5,138.5C 329.338,134.999 326.338,130.665 324.5,125.5 Z"/></g>
    <g><path style="opacity:1" fill="#5dc468" d="M 288.5,125.5 C 291.185,128.19 293.518,131.19 295.5,134.5C 295.833,135.833 296.167,137.167 296.5,138.5C 292.545,134.916 289.878,130.583 288.5,125.5 Z"/></g>
    <g><path style="opacity:1" fill="#b9edc0" d="M 217.5,133.5 C 216.702,135.966 215.369,137.966 213.5,139.5C 213.929,136.853 215.262,134.853 217.5,133.5 Z"/></g>
    <g><path style="opacity:1" fill="#0db730" d="M 311.5,108.5 C 311.343,109.873 311.51,111.207 312,112.5C 315.038,116.198 318.038,119.864 321,123.5C 321.333,125.5 321.667,127.5 322,129.5C 325.881,132.216 328.381,135.883 329.5,140.5C 330.833,140.5 332.167,140.5 333.5,140.5C 333.5,140.833 333.5,141.167 333.5,141.5C 334.75,143.932 336.25,146.266 338,148.5C 338.671,149.252 339.504,149.586 340.5,149.5C 340.5,150.833 340.5,152.167 340.5,153.5C 342.177,156.025 343.677,158.691 345,161.5C 345.831,167.859 345.664,174.193 344.5,180.5C 343.712,179.23 342.712,178.23 341.5,177.5C 338.856,174.006 336.356,170.34 334,166.5C 331.108,165.158 329.775,162.825 330,159.5C 329.292,158.619 328.458,157.953 327.5,157.5C 326.35,154.702 325.017,152.035 323.5,149.5C 322.508,149.672 321.842,149.338 321.5,148.5C 320.167,145.833 318.833,143.167 317.5,140.5C 316.554,136.608 315.054,132.941 313,129.5C 309.466,126.948 307.299,123.448 306.5,119C 309.132,114.468 308.132,113.635 303.5,116.5C 303.167,115.833 302.833,115.167 302.5,114.5C 302.972,112.693 303.306,110.86 303.5,109C 302.342,105.215 301.842,101.381 302,97.5C 304.712,101.612 307.878,105.278 311.5,108.5 Z"/></g>
    <g><path style="opacity:1" fill="#e0f9dd" d="M 306.5,125.5 C 308.087,128.428 310.087,131.094 312.5,133.5C 312.076,137.002 313.41,139.335 316.5,140.5C 316.833,140.5 317.167,140.5 317.5,140.5C 318.833,143.167 320.167,145.833 321.5,148.5C 312.906,143.228 307.906,135.562 306.5,125.5 Z"/></g>
    <g><path style="opacity:1" fill="#9de6a4" d="M 312.5,133.5 C 313.979,135.678 315.312,138.012 316.5,140.5C 313.41,139.335 312.076,137.002 312.5,133.5 Z"/></g>
    <g><path style="opacity:1" fill="#62c66f" d="M 209.5,117.5 C 209.833,117.5 210.167,117.5 210.5,117.5C 210.628,119.655 210.128,121.655 209,123.5C 202.214,130.511 196.881,138.511 193,147.5C 192.184,148.823 191.017,149.489 189.5,149.5C 192.5,144.167 195.5,138.833 198.5,133.5C 203.137,128.913 206.804,123.579 209.5,117.5 Z"/></g>
    <g><path style="opacity:1" fill="#a6e7aa" d="M 295.5,134.5 C 296.167,134.833 296.833,135.167 297.5,135.5C 298.573,138.644 299.907,141.644 301.5,144.5C 299.139,143.105 297.472,141.105 296.5,138.5C 296.167,137.167 295.833,135.833 295.5,134.5 Z"/></g>
    <g><path style="opacity:1" fill="#a6e7a8" d="M 233.5,135.5 C 233.155,138.198 231.822,140.198 229.5,141.5C 230.34,139.147 231.674,137.147 233.5,135.5 Z"/></g>
    <g><path style="opacity:1" fill="#7cd088" d="M 333.5,141.5 C 336.893,143.227 339.226,145.894 340.5,149.5C 339.504,149.586 338.671,149.252 338,148.5C 336.25,146.266 334.75,143.932 333.5,141.5 Z"/></g>
    <g><path style="opacity:1" fill="#d2f8d5" d="M 213.5,139.5 C 212.217,141.606 211.384,143.94 211,146.5C 210.241,148.063 209.074,149.063 207.5,149.5C 208.35,147.397 209.35,145.397 210.5,143.5C 210.738,141.596 211.738,140.262 213.5,139.5 Z"/></g>
    <g><path style="opacity:1" fill="#bff7c2" d="M 228.5,143.5 C 227.525,145.795 226.192,147.795 224.5,149.5C 224.684,146.663 226.018,144.663 228.5,143.5 Z"/></g>
    <g><path style="opacity:1" fill="#47be56" d="M 235.5,133.5 C 235.657,134.873 235.49,136.207 235,137.5C 232.454,140.037 230.788,143.037 230,146.5C 227.522,150.45 224.689,154.117 221.5,157.5C 222.883,155.022 223.883,152.355 224.5,149.5C 226.192,147.795 227.525,145.795 228.5,143.5C 229.338,143.158 229.672,142.492 229.5,141.5C 231.822,140.198 233.155,138.198 233.5,135.5C 234.167,134.833 234.833,134.167 235.5,133.5 Z"/></g>
    <g><path style="opacity:1" fill="#48c059" d="M 269.5,148.5 C 267.901,148.232 266.568,148.566 265.5,149.5C 263.801,149.34 262.134,149.506 260.5,150C 259.748,150.671 259.414,151.504 259.5,152.5C 257.787,153.635 257.12,155.302 257.5,157.5C 255.331,159.34 253.998,161.674 253.5,164.5C 252.206,165.29 251.039,166.29 250,167.5C 246.796,172.597 243.629,177.597 240.5,182.5C 240.34,180.801 240.506,179.134 241,177.5C 245.095,172.569 248.595,167.236 251.5,161.5C 255.148,159.207 256.981,155.873 257,151.5C 260.598,146.72 264.764,145.72 269.5,148.5 Z"/></g>
    <g><path style="opacity:1" fill="#86da91" d="M 210.5,143.5 C 209.35,145.397 208.35,147.397 207.5,149.5C 206.833,149.5 206.167,149.5 205.5,149.5C 206.472,146.895 208.139,144.895 210.5,143.5 Z"/></g>
    <g><path style="opacity:1" fill="#76d388" d="M 189.5,149.5 C 188.474,153.575 186.474,156.908 183.5,159.5C 185.023,156.655 186.023,153.655 186.5,150.5C 187.391,149.89 188.391,149.557 189.5,149.5 Z"/></g>
    <g><path style="opacity:1" fill="#8fdb9b" d="M 204.5,152.5 C 202.279,157.937 199.279,162.937 195.5,167.5C 194.833,167.833 194.167,168.167 193.5,168.5C 193.557,167.391 193.89,166.391 194.5,165.5C 197.039,160.619 200.372,156.285 204.5,152.5 Z"/></g>
    <g><path style="opacity:1" fill="#a4e4ab" d="M 323.5,149.5 C 325.017,152.035 326.35,154.702 327.5,157.5C 324.285,155.893 322.951,153.226 323.5,149.5 Z"/></g>
    <g><path style="opacity:1" fill="#f9fcf8" d="M 279.5,165.5 C 279.345,170.261 281.345,173.594 285.5,175.5C 285.5,175.833 285.5,176.167 285.5,176.5C 287.631,179.446 288.631,182.779 288.5,186.5C 287.5,186.5 286.5,186.5 285.5,186.5C 284.292,185.766 282.959,185.433 281.5,185.5C 280.789,183.97 279.789,182.637 278.5,181.5C 275.761,177.991 272.094,176.657 267.5,177.5C 267.168,168.475 267.502,159.475 268.5,150.5C 271.276,154.647 273.776,158.981 276,163.5C 276.816,164.823 277.983,165.489 279.5,165.5 Z"/></g>
    <g><path style="opacity:1" fill="#60c76b" d="M 340.5,153.5 C 343.168,155.336 345.334,157.669 347,160.5C 347.5,167.492 347.666,174.492 347.5,181.5C 345.833,181.5 344.167,181.5 342.5,181.5C 342.167,180.167 341.833,178.833 341.5,177.5C 342.712,178.23 343.712,179.23 344.5,180.5C 345.664,174.193 345.831,167.859 345,161.5C 343.677,158.691 342.177,156.025 340.5,153.5 Z"/></g>
    <g><path style="opacity:1" fill="#cbf7d4" d="M 186.5,150.5 C 186.023,153.655 185.023,156.655 183.5,159.5C 182.833,159.833 182.167,160.167 181.5,160.5C 182.675,156.817 184.341,153.484 186.5,150.5 Z"/></g>
    <g><path style="opacity:1" fill="#84cf8d" d="M 265.5,149.5 C 265.5,158.833 265.5,168.167 265.5,177.5C 264.5,177.5 263.5,177.5 262.5,177.5C 262.666,169.493 262.5,161.493 262,153.5C 261.658,151.381 260.825,151.047 259.5,152.5C 259.414,151.504 259.748,150.671 260.5,150C 262.134,149.506 263.801,149.34 265.5,149.5 Z"/></g>
    <g><path style="opacity:1" fill="#9be3a3" d="M 224.5,149.5 C 223.883,152.355 222.883,155.022 221.5,157.5C 221.5,158.167 221.5,158.833 221.5,159.5C 219.051,160.94 217.385,162.94 216.5,165.5C 216.174,162.393 217.341,160.06 220,158.5C 220.915,155.119 222.415,152.119 224.5,149.5 Z"/></g>
    <g><path style="opacity:1" fill="#a0e3a9" d="M 301.5,145.5 C 303.353,147.375 305.187,149.375 307,151.5C 308.501,156.517 310.668,161.183 313.5,165.5C 313.167,165.5 312.833,165.5 312.5,165.5C 311.113,162.947 309.28,160.614 307,158.5C 305.67,153.853 303.837,149.52 301.5,145.5 Z"/></g>
    <g><path style="opacity:1" fill="#f6fcf7" d="M 261.5,177.5 C 258.32,177.661 255.653,178.661 253.5,180.5C 252.486,181.674 251.153,182.34 249.5,182.5C 247.906,182.92 246.406,183.586 245,184.5C 243.97,184.164 243.47,183.497 243.5,182.5C 244.608,178.869 246.774,175.869 250,173.5C 250.638,170.236 251.804,167.236 253.5,164.5C 253.998,161.674 255.331,159.34 257.5,157.5C 258.458,157.047 259.292,156.381 260,155.5C 260.333,155.833 260.667,156.167 261,156.5C 261.5,163.492 261.666,170.492 261.5,177.5 Z"/></g>
    <g><path style="opacity:1" fill="#cef2cb" d="M 262.5,177.5 C 262.167,177.5 261.833,177.5 261.5,177.5C 261.666,170.492 261.5,163.492 261,156.5C 260.667,156.167 260.333,155.833 260,155.5C 259.292,156.381 258.458,157.047 257.5,157.5C 257.12,155.302 257.787,153.635 259.5,152.5C 260.825,151.047 261.658,151.381 262,153.5C 262.5,161.493 262.666,169.493 262.5,177.5 Z"/></g>
    <g><path style="opacity:1" fill="#b7eebf" d="M 327.5,157.5 C 328.458,157.953 329.292,158.619 330,159.5C 329.775,162.825 331.108,165.158 334,166.5C 336.356,170.34 338.856,174.006 341.5,177.5C 341.833,178.833 342.167,180.167 342.5,181.5C 342.167,181.5 341.833,181.5 341.5,181.5C 338.619,176.925 335.786,172.258 333,167.5C 332,166.833 331,166.167 330,165.5C 328.409,163.073 327.575,160.407 327.5,157.5 Z"/></g>
    <g><path style="opacity:1" fill="#57c568" d="M 183.5,159.5 C 182.896,166.463 183.229,173.463 184.5,180.5C 185.513,177.832 187.179,175.832 189.5,174.5C 189.5,174.833 189.5,175.167 189.5,175.5C 187.654,177.03 186.654,179.03 186.5,181.5C 185.167,181.5 183.833,181.5 182.5,181.5C 182.498,174.48 182.165,167.48 181.5,160.5C 182.167,160.167 182.833,159.833 183.5,159.5 Z"/></g>
    <g><path style="opacity:1" fill="#aeeab0" d="M 253.5,164.5 C 251.804,167.236 250.638,170.236 250,173.5C 246.774,175.869 244.608,178.869 243.5,182.5C 242.5,183.167 241.5,183.833 240.5,184.5C 240.5,183.833 240.5,183.167 240.5,182.5C 243.629,177.597 246.796,172.597 250,167.5C 251.039,166.29 252.206,165.29 253.5,164.5 Z"/></g>
    <g><path style="opacity:1" fill="#cbf3cb" d="M 279.5,165.5 C 279.833,165.5 280.167,165.5 280.5,165.5C 281.15,167.435 281.483,169.435 281.5,171.5C 284.142,171.488 285.475,172.821 285.5,175.5C 281.345,173.594 279.345,170.261 279.5,165.5 Z"/></g>
    <g><path style="opacity:1" fill="#50bb5f" d="M 194.5,165.5 C 193.89,166.391 193.557,167.391 193.5,168.5C 193.33,171.204 191.997,172.871 189.5,173.5C 190.69,170.436 192.357,167.769 194.5,165.5 Z"/></g>
    <g><path style="opacity:1" fill="#c8f6cf" d="M 195.5,167.5 C 195.354,171.636 193.354,174.303 189.5,175.5C 189.5,175.167 189.5,174.833 189.5,174.5C 189.5,174.167 189.5,173.833 189.5,173.5C 191.997,172.871 193.33,171.204 193.5,168.5C 194.167,168.167 194.833,167.833 195.5,167.5 Z"/></g>
    <g><path style="opacity:1" fill="#acecb5" d="M 269.5,148.5 C 273.085,154.002 276.419,159.669 279.5,165.5C 277.983,165.489 276.816,164.823 276,163.5C 273.776,158.981 271.276,154.647 268.5,150.5C 267.502,159.475 267.168,168.475 267.5,177.5C 272.094,176.657 275.761,177.991 278.5,181.5C 274.014,180.532 269.68,179.199 265.5,177.5C 265.5,168.167 265.5,158.833 265.5,149.5C 266.568,148.566 267.901,148.232 269.5,148.5 Z"/></g>
    <g><path style="opacity:1" fill="#a5e5a8" d="M 181.5,160.5 C 182.165,167.48 182.498,174.48 182.5,181.5C 183.833,181.5 185.167,181.5 186.5,181.5C 186.654,179.03 187.654,177.03 189.5,175.5C 188.833,177.833 188.167,180.167 187.5,182.5C 185.5,182.5 183.5,182.5 181.5,182.5C 181.01,174.984 181.01,167.651 181.5,160.5 Z"/></g>
    <g><path style="opacity:1" fill="#9fe6a3" d="M 211.5,173.5 C 209.377,179.616 206.044,184.949 201.5,189.5C 204.477,183.875 207.81,178.542 211.5,173.5 Z"/></g>
    <g><path style="opacity:1" fill="#a0e8aa" d="M 261.5,177.5 C 259.347,179.339 256.68,180.339 253.5,180.5C 255.653,178.661 258.32,177.661 261.5,177.5 Z"/></g>
    <g><path style="opacity:1" fill="#27b63f" d="M 221.5,159.5 C 219.906,163.114 218.406,166.78 217,170.5C 214.379,173.515 212.212,176.848 210.5,180.5C 211.15,183.188 211.15,185.688 210.5,188C 208.187,188.662 205.854,189.162 203.5,189.5C 202.885,195.73 200.385,201.063 196,205.5C 195.107,209.224 192.94,211.891 189.5,213.5C 189.5,212.833 189.5,212.167 189.5,211.5C 193.839,207.845 196.506,203.178 197.5,197.5C 200.012,195.535 201.345,192.868 201.5,189.5C 206.044,184.949 209.377,179.616 211.5,173.5C 213.17,170.825 214.836,168.159 216.5,165.5C 217.385,162.94 219.051,160.94 221.5,159.5 Z"/></g>
    <g><path style="opacity:1" fill="#d5f6d5" d="M 285.5,176.5 C 290.82,183.117 296.153,189.784 301.5,196.5C 301.5,197.167 301.5,197.833 301.5,198.5C 299.621,197.659 297.621,197.325 295.5,197.5C 296.686,192.607 295.019,189.273 290.5,187.5C 289.132,190.8 289.632,193.8 292,196.5C 292.667,202.5 292.667,208.5 292,214.5C 290.39,220.401 286.89,224.735 281.5,227.5C 283.167,224.833 284.833,222.167 286.5,219.5C 288.975,218.313 289.975,216.313 289.5,213.5C 291.2,205.924 290.533,198.59 287.5,191.5C 286.833,189.833 286.167,188.167 285.5,186.5C 286.5,186.5 287.5,186.5 288.5,186.5C 288.631,182.779 287.631,179.446 285.5,176.5 Z"/></g>
    <g><path style="opacity:1" fill="#d7f4d8" d="M 333.5,138.5 C 335.305,139.237 336.971,140.237 338.5,141.5C 340.896,147.96 344.062,153.96 348,159.5C 348.5,167.827 348.666,176.16 348.5,184.5C 346.473,184.662 344.473,184.495 342.5,184C 341.748,183.329 341.414,182.496 341.5,181.5C 341.833,181.5 342.167,181.5 342.5,181.5C 344.167,181.5 345.833,181.5 347.5,181.5C 347.666,174.492 347.5,167.492 347,160.5C 345.334,157.669 343.168,155.336 340.5,153.5C 340.5,152.167 340.5,150.833 340.5,149.5C 339.226,145.894 336.893,143.227 333.5,141.5C 333.5,141.167 333.5,140.833 333.5,140.5C 333.5,139.833 333.5,139.167 333.5,138.5 Z"/></g>
    <g><path style="opacity:1" fill="#33b745" d="M 280.5,165.5 C 282.085,166.474 283.085,167.974 283.5,170C 285.584,170.778 287.417,171.945 289,173.5C 289.761,177.634 291.261,181.3 293.5,184.5C 295.911,184.863 297.411,183.863 298,181.5C 299.033,186.615 300.2,191.615 301.5,196.5C 296.153,189.784 290.82,183.117 285.5,176.5C 285.5,176.167 285.5,175.833 285.5,175.5C 285.475,172.821 284.142,171.488 281.5,171.5C 281.483,169.435 281.15,167.435 280.5,165.5 Z"/></g>
    <g><path style="opacity:1" fill="#7fd78a" d="M 312.5,165.5 C 312.833,165.5 313.167,165.5 313.5,165.5C 315.732,169.621 318.232,173.621 321,177.5C 321.49,178.793 321.657,180.127 321.5,181.5C 322.5,181.5 323.5,181.5 324.5,181.5C 325.292,185.078 326.625,188.412 328.5,191.5C 326.871,190.375 325.371,189.041 324,187.5C 321.831,183.382 319.664,179.382 317.5,175.5C 314.259,173.017 312.592,169.684 312.5,165.5 Z"/></g>
    <g><path style="opacity:1" fill="#80cf88" d="M 247.5,185.5 C 244.726,188.26 242.392,191.26 240.5,194.5C 240.933,190.062 243.267,187.062 247.5,185.5 Z"/></g>
    <g><path style="opacity:1" fill="#fefefe" d="M 301.5,198.5 C 301.5,198.833 301.5,199.167 301.5,199.5C 302.906,205.466 305.906,210.466 310.5,214.5C 311.429,215.689 311.762,217.022 311.5,218.5C 312.5,218.5 313.5,218.5 314.5,218.5C 317.068,222.617 319.902,226.617 323,230.5C 323.483,231.448 323.649,232.448 323.5,233.5C 329.698,244.875 337.032,255.542 345.5,265.5C 346.34,267.853 347.674,269.853 349.5,271.5C 351.318,274.974 353.318,278.307 355.5,281.5C 358.389,283.495 360.389,286.162 361.5,289.5C 362.617,294.169 365.284,297.836 369.5,300.5C 369.88,303.745 371.047,306.745 373,309.5C 375.14,313.462 377.973,316.796 381.5,319.5C 382.326,321.264 383.659,322.598 385.5,323.5C 385.328,324.492 385.662,325.158 386.5,325.5C 386.892,327.179 387.392,328.846 388,330.5C 391.602,333.942 394.768,337.608 397.5,341.5C 397.092,344.599 398.259,346.933 401,348.5C 401.483,349.448 401.649,350.448 401.5,351.5C 379.677,352.833 357.51,353.5 335,353.5C 312.833,353.333 290.667,353.167 268.5,353C 267.663,351.989 267.33,350.822 267.5,349.5C 268.333,311.002 268.833,272.335 269,233.5C 271.041,234.423 273.208,234.756 275.5,234.5C 275.365,232.446 276.032,230.779 277.5,229.5C 278.287,227.896 279.62,227.229 281.5,227.5C 286.89,224.735 290.39,220.401 292,214.5C 292.667,208.5 292.667,202.5 292,196.5C 289.632,193.8 289.132,190.8 290.5,187.5C 295.019,189.273 296.686,192.607 295.5,197.5C 297.621,197.325 299.621,197.659 301.5,198.5 Z"/></g>
    <g><path style="opacity:1" fill="#a4e2a9" d="M 240.5,184.5 C 239.469,189.564 237.135,193.898 233.5,197.5C 235.107,192.608 237.441,188.275 240.5,184.5 Z"/></g>
    <g><path style="opacity:1" fill="#e2f9de" d="M 272.5,185.5 C 274.034,187.369 276.034,188.702 278.5,189.5C 274.971,191.423 270.971,192.089 266.5,191.5C 264.591,186.074 266.591,184.074 272.5,185.5 Z"/></g>
    <g><path style="opacity:1" fill="#96da9a" d="M 272.5,185.5 C 266.591,184.074 264.591,186.074 266.5,191.5C 260.87,192.292 255.203,192.625 249.5,192.5C 249.259,189.966 250.259,188.3 252.5,187.5C 251.766,188.708 251.433,190.041 251.5,191.5C 254.833,191.5 258.167,191.5 261.5,191.5C 261.5,189.833 261.5,188.167 261.5,186.5C 259.097,186.448 256.764,186.781 254.5,187.5C 255.317,185.522 256.817,184.522 259,184.5C 263.634,184.739 268.134,185.073 272.5,185.5 Z"/></g>
    <g><path style="opacity:1" fill="#e9fcee" d="M 252.5,187.5 C 253.167,187.5 253.833,187.5 254.5,187.5C 256.764,186.781 259.097,186.448 261.5,186.5C 261.5,188.167 261.5,189.833 261.5,191.5C 258.167,191.5 254.833,191.5 251.5,191.5C 251.433,190.041 251.766,188.708 252.5,187.5 Z"/></g>
    <g><path style="opacity:1" fill="#abe9a8" d="M 278.5,189.5 C 279.404,190.209 279.737,191.209 279.5,192.5C 274.968,192.818 270.634,192.485 266.5,191.5C 270.971,192.089 274.971,191.423 278.5,189.5 Z"/></g>
    <g><path style="opacity:1" fill="#31b747" d="M 317.5,175.5 C 319.664,179.382 321.831,183.382 324,187.5C 325.371,189.041 326.871,190.375 328.5,191.5C 329.408,195.017 331.074,198.017 333.5,200.5C 333.5,201.833 333.5,203.167 333.5,204.5C 332.206,203.71 331.039,202.71 330,201.5C 329.624,198.99 328.79,196.657 327.5,194.5C 324.394,191.144 321.394,187.644 318.5,184C 318.957,183.586 319.291,183.086 319.5,182.5C 318.054,180.382 317.387,178.049 317.5,175.5 Z"/></g>
    <g><path style="opacity:1" fill="#aaecb4" d="M 201.5,189.5 C 201.345,192.868 200.012,195.535 197.5,197.5C 197.537,194.047 198.871,191.381 201.5,189.5 Z"/></g>
    <g><path style="opacity:1" fill="#2ab93f" d="M 261.5,177.5 C 261.833,177.5 262.167,177.5 262.5,177.5C 263.5,177.5 264.5,177.5 265.5,177.5C 269.68,179.199 274.014,180.532 278.5,181.5C 279.789,182.637 280.789,183.97 281.5,185.5C 281.209,186.649 280.376,187.316 279,187.5C 276.774,186.967 274.607,186.3 272.5,185.5C 268.134,185.073 263.634,184.739 259,184.5C 256.817,184.522 255.317,185.522 254.5,187.5C 253.833,187.5 253.167,187.5 252.5,187.5C 250.259,188.3 249.259,189.966 249.5,192.5C 247.897,193.596 246.397,194.93 245,196.5C 244.211,198.712 244.378,200.712 245.5,202.5C 245.5,202.833 245.5,203.167 245.5,203.5C 245.5,204.5 245.5,205.5 245.5,206.5C 244.167,208.833 244.167,211.167 245.5,213.5C 245.842,214.338 246.508,214.672 247.5,214.5C 248.827,217.471 250.16,220.471 251.5,223.5C 250.833,223.833 250.167,224.167 249.5,224.5C 247.816,223.473 246.149,222.473 244.5,221.5C 242.83,218.825 241.164,216.159 239.5,213.5C 239.249,207.108 239.582,200.775 240.5,194.5C 242.392,191.26 244.726,188.26 247.5,185.5C 248.167,184.5 248.833,183.5 249.5,182.5C 251.153,182.34 252.486,181.674 253.5,180.5C 256.68,180.339 259.347,179.339 261.5,177.5 Z"/></g>
    <g><path style="opacity:1" fill="#59c163" d="M 272.5,185.5 C 274.607,186.3 276.774,186.967 279,187.5C 280.376,187.316 281.209,186.649 281.5,185.5C 282.959,185.433 284.292,185.766 285.5,186.5C 286.167,188.167 286.833,189.833 287.5,191.5C 285.292,190.977 283.792,189.644 283,187.5C 280.318,189.724 279.818,192.39 281.5,195.5C 271.11,196.132 260.777,196.132 250.5,195.5C 246.2,195.815 244.533,198.149 245.5,202.5C 244.378,200.712 244.211,198.712 245,196.5C 246.397,194.93 247.897,193.596 249.5,192.5C 255.203,192.625 260.87,192.292 266.5,191.5C 270.634,192.485 274.968,192.818 279.5,192.5C 279.737,191.209 279.404,190.209 278.5,189.5C 276.034,188.702 274.034,187.369 272.5,185.5 Z"/></g>
    <g><path style="opacity:1" fill="#91d998" d="M 250.5,195.5 C 260.777,196.132 271.11,196.132 281.5,195.5C 282.167,195.5 282.5,195.833 282.5,196.5C 283.725,197.152 284.392,198.319 284.5,200C 284.392,201.681 283.725,202.848 282.5,203.5C 270.167,202.167 257.833,202.167 245.5,203.5C 245.5,203.167 245.5,202.833 245.5,202.5C 250.833,202.5 256.167,202.5 261.5,202.5C 261.5,200.5 261.5,198.5 261.5,196.5C 257.629,196.815 253.962,196.482 250.5,195.5 Z"/></g>
    <g><path style="opacity:1" fill="#ecfded" d="M 250.5,195.5 C 253.962,196.482 257.629,196.815 261.5,196.5C 261.5,198.5 261.5,200.5 261.5,202.5C 256.167,202.5 250.833,202.5 245.5,202.5C 244.533,198.149 246.2,195.815 250.5,195.5 Z"/></g>
    <g><path style="opacity:1" fill="#85d893" d="M 240.5,194.5 C 239.582,200.775 239.249,207.108 239.5,213.5C 239.167,213.5 238.833,213.5 238.5,213.5C 238.334,207.491 238.501,201.491 239,195.5C 239.383,194.944 239.883,194.611 240.5,194.5 Z"/></g>
    <g><path style="opacity:1" fill="#e1fae3" d="M 243.5,182.5 C 243.47,183.497 243.97,184.164 245,184.5C 246.406,183.586 247.906,182.92 249.5,182.5C 248.833,183.5 248.167,184.5 247.5,185.5C 243.267,187.062 240.933,190.062 240.5,194.5C 239.883,194.611 239.383,194.944 239,195.5C 238.501,201.491 238.334,207.491 238.5,213.5C 236.711,208.593 235.878,203.26 236,197.5C 234.983,199.376 234.149,201.376 233.5,203.5C 231.64,204.26 229.973,205.26 228.5,206.5C 229.5,204.5 230.5,202.5 231.5,200.5C 231.427,198.973 232.094,197.973 233.5,197.5C 237.135,193.898 239.469,189.564 240.5,184.5C 241.5,183.833 242.5,183.167 243.5,182.5 Z"/></g>
    <g><path style="opacity:1" fill="#d9fcd9" d="M 282.5,196.5 C 282.5,196.833 282.5,197.167 282.5,197.5C 283.451,198.919 283.784,200.585 283.5,202.5C 277.833,202.5 272.167,202.5 266.5,202.5C 266.5,200.5 266.5,198.5 266.5,196.5C 271.833,196.5 277.167,196.5 282.5,196.5 Z"/></g>
    <g><path style="opacity:1" fill="#f6fef5" d="M 282.5,197.5 C 282.5,198.833 282.5,200.167 282.5,201.5C 277.5,201.5 272.5,201.5 267.5,201.5C 267.5,200.167 267.5,198.833 267.5,197.5C 272.5,197.5 277.5,197.5 282.5,197.5 Z"/></g>
    <g><path style="opacity:1" fill="#68c976" d="M 231.5,200.5 C 230.5,202.5 229.5,204.5 228.5,206.5C 228.5,206.833 228.5,207.167 228.5,207.5C 227.5,208.167 226.5,208.833 225.5,209.5C 226.277,205.592 228.277,202.592 231.5,200.5 Z"/></g>
    <g><path style="opacity:1" fill="#5bbe5f" d="M 282.5,203.5 C 282.5,204.5 282.5,205.5 282.5,206.5C 276.974,206.179 271.64,206.512 266.5,207.5C 265.167,207.5 263.833,207.5 262.5,207.5C 256.925,206.548 251.259,206.214 245.5,206.5C 245.5,205.5 245.5,204.5 245.5,203.5C 257.833,202.167 270.167,202.167 282.5,203.5 Z"/></g>
    <g><path style="opacity:1" fill="#fefefe" d="M 238.5,213.5 C 238.833,213.5 239.167,213.5 239.5,213.5C 239.592,217.684 241.259,221.017 244.5,223.5C 245.605,224.6 246.938,225.267 248.5,225.5C 249.891,227.89 251.891,229.557 254.5,230.5C 254.414,231.496 254.748,232.329 255.5,233C 257.134,233.494 258.801,233.66 260.5,233.5C 260.438,273.551 260.438,313.551 260.5,353.5C 222.803,353.185 185.136,353.518 147.5,354.5C 147.338,352.473 147.505,350.473 148,348.5C 150.043,346.792 151.71,344.792 153,342.5C 154.204,338.387 155.704,334.387 157.5,330.5C 163.945,318.412 171.111,306.746 179,295.5C 180.602,292.184 182.102,288.851 183.5,285.5C 189.196,277.444 193.863,268.777 197.5,259.5C 199.887,257.087 202.054,254.42 204,251.5C 204.608,249.846 205.108,248.179 205.5,246.5C 205.75,244.326 206.75,242.659 208.5,241.5C 210.652,237.699 212.985,234.033 215.5,230.5C 216.15,230.196 216.817,229.863 217.5,229.5C 219.631,225.023 222.631,221.357 226.5,218.5C 227.248,214.843 227.915,211.177 228.5,207.5C 228.5,207.167 228.5,206.833 228.5,206.5C 229.973,205.26 231.64,204.26 233.5,203.5C 234.149,201.376 234.983,199.376 236,197.5C 235.878,203.26 236.711,208.593 238.5,213.5 Z"/></g>
    <g><path style="opacity:1" fill="#c7f3ca" d="M 245.5,206.5 C 251.259,206.214 256.925,206.548 262.5,207.5C 262.784,209.415 262.451,211.081 261.5,212.5C 256.36,213.488 251.026,213.821 245.5,213.5C 244.167,211.167 244.167,208.833 245.5,206.5 Z"/></g>
    <g><path style="opacity:1" fill="#79d688" d="M 197.5,197.5 C 196.506,203.178 193.839,207.845 189.5,211.5C 191.64,207.357 193.473,203.024 195,198.5C 195.671,197.748 196.504,197.414 197.5,197.5 Z"/></g>
    <g><path style="opacity:1" fill="#fbfcfb" d="M 261.5,212.5 C 256.821,212.666 252.155,212.499 247.5,212C 246.663,210.989 246.33,209.822 246.5,208.5C 251.5,208.5 256.5,208.5 261.5,208.5C 261.5,209.833 261.5,211.167 261.5,212.5 Z"/></g>
    <g><path style="opacity:1" fill="#c9f4cb" d="M 282.5,206.5 C 284.243,208.126 284.743,210.126 284,212.5C 283.329,213.252 282.496,213.586 281.5,213.5C 276.489,213.666 271.489,213.499 266.5,213C 265.248,211.172 265.248,209.339 266.5,207.5C 271.64,206.512 276.974,206.179 282.5,206.5 Z"/></g>
    <g><path style="opacity:1" fill="#f9fdfb" d="M 267.5,208.5 C 272.5,208.5 277.5,208.5 282.5,208.5C 282.5,209.833 282.5,211.167 282.5,212.5C 277.5,212.5 272.5,212.5 267.5,212.5C 267.5,211.167 267.5,209.833 267.5,208.5 Z"/></g>
    <g><path style="opacity:1" fill="#bdf0c3" d="M 301.5,199.5 C 303.74,200.568 305.574,202.234 307,204.5C 309.036,209.463 311.536,214.13 314.5,218.5C 313.5,218.5 312.5,218.5 311.5,218.5C 311.762,217.022 311.429,215.689 310.5,214.5C 305.906,210.466 302.906,205.466 301.5,199.5 Z"/></g>
    <g><path style="opacity:1" fill="#81d58e" d="M 333.5,200.5 C 337.794,204.638 340.628,209.638 342,215.5C 345.598,219.25 348.098,223.583 349.5,228.5C 343.591,223.036 339.425,216.369 337,208.5C 336.051,206.907 334.885,205.574 333.5,204.5C 333.5,203.167 333.5,201.833 333.5,200.5 Z"/></g>
    <g><path style="opacity:1" fill="#84d48d" d="M 223.5,213.5 C 222.787,217.683 220.787,221.016 217.5,223.5C 219.329,219.944 221.329,216.61 223.5,213.5 Z"/></g>
    <g><path style="opacity:1" fill="#aceab7" d="M 239.5,213.5 C 241.164,216.159 242.83,218.825 244.5,221.5C 244.5,222.167 244.5,222.833 244.5,223.5C 241.259,221.017 239.592,217.684 239.5,213.5 Z"/></g>
    <g><path style="opacity:1" fill="#52be5e" d="M 247.5,214.5 C 253.842,214.334 260.175,214.5 266.5,215C 267.252,215.671 267.586,216.504 267.5,217.5C 262.26,217.82 256.927,217.82 251.5,217.5C 251.028,220.358 252.028,222.358 254.5,223.5C 252.348,224.077 252.015,225.244 253.5,227C 257.06,228.237 260.727,228.737 264.5,228.5C 264.263,229.791 264.596,230.791 265.5,231.5C 265.5,232.167 265.5,232.833 265.5,233.5C 264.391,233.443 263.391,233.11 262.5,232.5C 257.882,230.191 253.216,227.858 248.5,225.5C 246.938,225.267 245.605,224.6 244.5,223.5C 244.5,222.833 244.5,222.167 244.5,221.5C 246.149,222.473 247.816,223.473 249.5,224.5C 250.167,224.167 250.833,223.833 251.5,223.5C 250.16,220.471 248.827,217.471 247.5,214.5 Z"/></g>
    <g><path style="opacity:1" fill="#97e19f" d="M 289.5,213.5 C 289.975,216.313 288.975,218.313 286.5,219.5C 287.508,217.456 288.508,215.456 289.5,213.5 Z"/></g>
    <g><path style="opacity:1" fill="#28b83d" d="M 287.5,191.5 C 290.533,198.59 291.2,205.924 289.5,213.5C 288.508,215.456 287.508,217.456 286.5,219.5C 282.816,222.934 279.149,226.267 275.5,229.5C 274.5,229.5 273.5,229.5 272.5,229.5C 269.812,229.166 267.479,229.832 265.5,231.5C 264.596,230.791 264.263,229.791 264.5,228.5C 260.727,228.737 257.06,228.237 253.5,227C 252.015,225.244 252.348,224.077 254.5,223.5C 255.167,223.5 255.833,223.5 256.5,223.5C 256.611,224.117 256.944,224.617 257.5,225C 262.5,225.667 267.5,225.667 272.5,225C 277.552,222.709 280.552,218.876 281.5,213.5C 282.496,213.586 283.329,213.252 284,212.5C 284.743,210.126 284.243,208.126 282.5,206.5C 282.5,205.5 282.5,204.5 282.5,203.5C 283.725,202.848 284.392,201.681 284.5,200C 284.392,198.319 283.725,197.152 282.5,196.5C 282.5,195.833 282.167,195.5 281.5,195.5C 279.818,192.39 280.318,189.724 283,187.5C 283.792,189.644 285.292,190.977 287.5,191.5 Z"/></g>
    <g><path style="opacity:1" fill="#bef3c7" d="M 188.5,213.5 C 187.312,215.988 185.979,218.322 184.5,220.5C 183.5,221.167 182.5,221.833 181.5,222.5C 182.753,219.734 184.253,217.067 186,214.5C 186.671,213.748 187.504,213.414 188.5,213.5 Z"/></g>
    <g><path style="opacity:1" fill="#83d48a" d="M 262.5,207.5 C 263.833,207.5 265.167,207.5 266.5,207.5C 265.248,209.339 265.248,211.172 266.5,213C 271.489,213.499 276.489,213.666 281.5,213.5C 280.552,218.876 277.552,222.709 272.5,225C 267.5,225.667 262.5,225.667 257.5,225C 256.944,224.617 256.611,224.117 256.5,223.5C 255.833,223.5 255.167,223.5 254.5,223.5C 252.028,222.358 251.028,220.358 251.5,217.5C 256.927,217.82 262.26,217.82 267.5,217.5C 267.586,216.504 267.252,215.671 266.5,215C 260.175,214.5 253.842,214.334 247.5,214.5C 246.508,214.672 245.842,214.338 245.5,213.5C 251.026,213.821 256.36,213.488 261.5,212.5C 262.451,211.081 262.784,209.415 262.5,207.5 Z"/></g>
    <g><path style="opacity:1" fill="#f2fdf0" d="M 267.5,218.5 C 270.167,218.5 272.833,218.5 275.5,218.5C 275.5,219.5 275.5,220.5 275.5,221.5C 272.996,222.639 270.33,223.306 267.5,223.5C 267.5,221.833 267.5,220.167 267.5,218.5 Z"/></g>
    <g><path style="opacity:1" fill="#e4fae6" d="M 256.5,223.5 C 255.2,222.173 253.867,220.84 252.5,219.5C 255.446,218.345 258.446,218.179 261.5,219C 262.38,220.356 262.714,221.856 262.5,223.5C 260.5,223.5 258.5,223.5 256.5,223.5 Z"/></g>
    <g><path style="opacity:1" fill="#b7e3b7" d="M 267.5,218.5 C 267.5,218.167 267.5,217.833 267.5,217.5C 270.833,217.5 274.167,217.5 277.5,217.5C 277.771,219.38 277.104,220.713 275.5,221.5C 275.5,220.5 275.5,219.5 275.5,218.5C 272.833,218.5 270.167,218.5 267.5,218.5 Z"/></g>
    <g><path style="opacity:1" fill="#ebfde9" d="M 228.5,207.5 C 227.915,211.177 227.248,214.843 226.5,218.5C 222.631,221.357 219.631,225.023 217.5,229.5C 216.817,229.863 216.15,230.196 215.5,230.5C 216.167,228.833 216.833,227.167 217.5,225.5C 217.5,224.833 217.5,224.167 217.5,223.5C 220.787,221.016 222.787,217.683 223.5,213.5C 224.674,212.486 225.34,211.153 225.5,209.5C 226.5,208.833 227.5,208.167 228.5,207.5 Z"/></g>
    <g><path style="opacity:1" fill="#72cd82" d="M 314.5,218.5 C 320,222.096 323.667,227.096 325.5,233.5C 325.5,233.833 325.5,234.167 325.5,234.5C 324.833,234.167 324.167,233.833 323.5,233.5C 323.649,232.448 323.483,231.448 323,230.5C 319.902,226.617 317.068,222.617 314.5,218.5 Z"/></g>
    <g><path style="opacity:1" fill="#a0e5a6" d="M 217.5,225.5 C 216.833,227.167 216.167,228.833 215.5,230.5C 212.985,234.033 210.652,237.699 208.5,241.5C 208.5,240.833 208.5,240.167 208.5,239.5C 210.506,234.145 213.506,229.479 217.5,225.5 Z"/></g>
    <g><path style="opacity:1" fill="#a8e6ae" d="M 286.5,219.5 C 284.833,222.167 283.167,224.833 281.5,227.5C 279.62,227.229 278.287,227.896 277.5,229.5C 276.833,229.5 276.167,229.5 275.5,229.5C 279.149,226.267 282.816,222.934 286.5,219.5 Z"/></g>
    <g><path style="opacity:1" fill="#69c974" d="M 184.5,220.5 C 182.62,225.645 180.453,230.645 178,235.5C 177.292,236.381 176.458,237.047 175.5,237.5C 176.167,235.167 176.833,232.833 177.5,230.5C 178.833,227.845 180.166,225.178 181.5,222.5C 182.5,221.833 183.5,221.167 184.5,220.5 Z"/></g>
    <g><path style="opacity:1" fill="#b4f2bc" d="M 350.5,229.5 C 353.839,232.835 356.172,236.835 357.5,241.5C 356.624,241.631 355.957,241.298 355.5,240.5C 354.014,236.69 352.347,233.024 350.5,229.5 Z"/></g>
    <g><path style="opacity:1" fill="#47c15a" d="M 325.5,233.5 C 326.833,233.5 328.167,233.5 329.5,233.5C 330.484,236.812 331.484,240.145 332.5,243.5C 335.429,245.341 337.929,247.674 340,250.5C 340.608,252.154 341.108,253.821 341.5,255.5C 338.78,252.94 336.614,249.94 335,246.5C 333.667,245.833 332.333,245.167 331,244.5C 329.93,240.689 328.097,237.356 325.5,234.5C 325.5,234.167 325.5,233.833 325.5,233.5 Z"/></g>
    <g><path style="opacity:1" fill="#c6f2c8" d="M 323.5,233.5 C 324.167,233.833 324.833,234.167 325.5,234.5C 328.097,237.356 329.93,240.689 331,244.5C 332.333,245.167 333.667,245.833 335,246.5C 336.614,249.94 338.78,252.94 341.5,255.5C 342.643,258.264 343.977,260.931 345.5,263.5C 345.5,264.167 345.5,264.833 345.5,265.5C 337.032,255.542 329.698,244.875 323.5,233.5 Z"/></g>
    <g><path style="opacity:1" fill="#b1f1b8" d="M 177.5,230.5 C 176.833,232.833 176.167,235.167 175.5,237.5C 174.833,238.167 174.167,238.833 173.5,239.5C 172.167,241.167 170.833,242.833 169.5,244.5C 169.892,242.821 170.392,241.154 171,239.5C 173.188,236.433 175.355,233.433 177.5,230.5 Z"/></g>
    <g><path style="opacity:1" fill="#89da8f" d="M 357.5,241.5 C 362.255,248.004 366.255,255.004 369.5,262.5C 363.165,256.83 359.165,249.83 357.5,241.5 Z"/></g>
    <g><path style="opacity:1" fill="#b9f0bf" d="M 169.5,245.5 C 166.866,251.099 163.866,256.432 160.5,261.5C 160.687,259.436 161.187,257.436 162,255.5C 163.95,251.722 166.45,248.388 169.5,245.5 Z"/></g>
    <g><path style="opacity:1" fill="#49bd58" d="M 208.5,239.5 C 208.5,240.167 208.5,240.833 208.5,241.5C 206.75,242.659 205.75,244.326 205.5,246.5C 203.953,249.56 201.786,252.226 199,254.5C 198.392,256.154 197.892,257.821 197.5,259.5C 196.833,259.833 196.167,260.167 195.5,260.5C 196.105,255.963 198.272,252.296 202,249.5C 203.018,245.325 205.185,241.992 208.5,239.5 Z"/></g>
    <g><path style="opacity:1" fill="#48bd59" d="M 173.5,239.5 C 171.611,243.249 170.444,247.249 170,251.5C 161.733,264.197 153.566,276.864 145.5,289.5C 146.454,286.294 147.787,283.294 149.5,280.5C 149.557,279.391 149.89,278.391 150.5,277.5C 153.559,274.075 155.892,270.075 157.5,265.5C 157.468,263.381 158.468,262.048 160.5,261.5C 163.866,256.432 166.866,251.099 169.5,245.5C 169.5,245.167 169.5,244.833 169.5,244.5C 170.833,242.833 172.167,241.167 173.5,239.5 Z"/></g>
    <g><path style="opacity:1" fill="#b7ebbc" d="M 205.5,246.5 C 205.108,248.179 204.608,249.846 204,251.5C 202.054,254.42 199.887,257.087 197.5,259.5C 197.892,257.821 198.392,256.154 199,254.5C 201.786,252.226 203.953,249.56 205.5,246.5 Z"/></g>
    <g><path style="opacity:1" fill="#31b448" d="M 194.5,261.5 C 191.342,269.103 187.509,276.437 183,283.5C 181.871,285.141 180.371,286.141 178.5,286.5C 179.63,284.685 180.296,282.685 180.5,280.5C 181.5,280.5 182.5,280.5 183.5,280.5C 182.534,275.811 184.2,272.478 188.5,270.5C 189.764,267.875 190.931,265.208 192,262.5C 192.671,261.748 193.504,261.414 194.5,261.5 Z"/></g>
    <g><path style="opacity:1" fill="#d4f7da" d="M 157.5,265.5 C 155.892,270.075 153.559,274.075 150.5,277.5C 150.164,273.833 150.997,270.5 153,267.5C 154.11,265.963 155.61,265.297 157.5,265.5 Z"/></g>
    <g><path style="opacity:1" fill="#9de4a6" d="M 345.5,265.5 C 348.804,266.144 350.138,268.144 349.5,271.5C 347.674,269.853 346.34,267.853 345.5,265.5 Z"/></g>
    <g><path style="opacity:1" fill="#3dbe56" d="M 345.5,263.5 C 348.496,264.474 350.163,266.474 350.5,269.5C 351.822,269.33 352.989,269.663 354,270.5C 355.202,272.677 355.702,275.011 355.5,277.5C 353.916,275.249 351.916,273.249 349.5,271.5C 350.138,268.144 348.804,266.144 345.5,265.5C 345.5,264.833 345.5,264.167 345.5,263.5 Z"/></g>
    <g><path style="opacity:1" fill="#6bcc78" d="M 369.5,262.5 C 372.927,267.016 375.593,272.016 377.5,277.5C 372.535,273.913 369.868,268.913 369.5,262.5 Z"/></g>
    <g><path style="opacity:1" fill="#9ee3a6" d="M 197.5,259.5 C 193.863,268.777 189.196,277.444 183.5,285.5C 180.663,288.518 178.329,291.851 176.5,295.5C 176.5,294.833 176.5,294.167 176.5,293.5C 177.933,291.442 178.6,289.108 178.5,286.5C 180.371,286.141 181.871,285.141 183,283.5C 187.509,276.437 191.342,269.103 194.5,261.5C 195.167,261.5 195.5,261.167 195.5,260.5C 196.167,260.167 196.833,259.833 197.5,259.5 Z"/></g>
    <g><path style="opacity:1" fill="#bff3c9" d="M 349.5,271.5 C 351.916,273.249 353.916,275.249 355.5,277.5C 355.5,278.167 355.5,278.833 355.5,279.5C 355.5,280.167 355.5,280.833 355.5,281.5C 353.318,278.307 351.318,274.974 349.5,271.5 Z"/></g>
    <g><path style="opacity:1" fill="#f0fcee" d="M 272.5,229.5 C 273.5,229.5 274.5,229.5 275.5,229.5C 276.167,229.5 276.833,229.5 277.5,229.5C 276.032,230.779 275.365,232.446 275.5,234.5C 273.208,234.756 271.041,234.423 269,233.5C 268.833,272.335 268.333,311.002 267.5,349.5C 267.5,310.5 267.5,271.5 267.5,232.5C 269.531,232.028 271.198,231.028 272.5,229.5 Z"/></g>
    <g><path style="opacity:1" fill="#7ad085" d="M 377.5,277.5 C 379.25,278.659 380.25,280.326 380.5,282.5C 377.916,281.952 376.916,280.285 377.5,277.5 Z"/></g>
    <g><path style="opacity:1" fill="#c8f2ca" d="M 149.5,280.5 C 147.787,283.294 146.454,286.294 145.5,289.5C 144.272,290.306 143.272,291.306 142.5,292.5C 142.31,286.861 144.644,282.861 149.5,280.5 Z"/></g>
    <g><path style="opacity:1" fill="#80d78c" d="M 355.5,279.5 C 357.129,280.625 358.629,281.959 360,283.5C 360.861,286.368 362.528,288.702 365,290.5C 365.483,291.448 365.649,292.448 365.5,293.5C 364.527,291.861 363.194,290.527 361.5,289.5C 360.389,286.162 358.389,283.495 355.5,281.5C 355.5,280.833 355.5,280.167 355.5,279.5 Z"/></g>
    <g><path style="opacity:1" fill="#d2f4d2" d="M 361.5,289.5 C 363.194,290.527 364.527,291.861 365.5,293.5C 367.199,295.566 368.532,297.9 369.5,300.5C 365.284,297.836 362.617,294.169 361.5,289.5 Z"/></g>
    <g><path style="opacity:1" fill="#7ec984" d="M 262.5,232.5 C 263.391,233.11 264.391,233.443 265.5,233.5C 265.5,274.167 265.5,314.833 265.5,355.5C 264.391,355.557 263.391,355.89 262.5,356.5C 262.5,315.167 262.5,273.833 262.5,232.5 Z"/></g>
    <g><path style="opacity:1" fill="#56c260" d="M 141.5,295.5 C 139.997,299.905 137.831,303.905 135,307.5C 134.493,311.958 132.66,315.625 129.5,318.5C 129.5,317.167 129.5,315.833 129.5,314.5C 129.392,312.486 130.058,310.82 131.5,309.5C 134.416,304.576 137.749,299.91 141.5,295.5 Z"/></g>
    <g><path style="opacity:1" fill="#d8f7d6" d="M 141.5,293.5 C 141.5,294.167 141.5,294.833 141.5,295.5C 137.749,299.91 134.416,304.576 131.5,309.5C 131.372,307.345 131.872,305.345 133,303.5C 135.75,299.931 138.584,296.597 141.5,293.5 Z"/></g>
    <g><path style="opacity:1" fill="#2cb642" d="M 176.5,293.5 C 176.5,294.167 176.5,294.833 176.5,295.5C 170.282,304.248 164.782,313.581 160,323.5C 159.292,324.381 158.458,325.047 157.5,325.5C 160.307,319.353 162.807,313.02 165,306.5C 167,303.5 169,300.5 171,297.5C 172.451,295.536 174.284,294.203 176.5,293.5 Z"/></g>
    <g><path style="opacity:1" fill="#caf4ca" d="M 369.5,300.5 C 373.17,305.177 376.836,309.843 380.5,314.5C 381.301,316.042 381.634,317.708 381.5,319.5C 377.973,316.796 375.14,313.462 373,309.5C 371.047,306.745 369.88,303.745 369.5,300.5 Z"/></g>
    <g><path style="opacity:1" fill="#8bd895" d="M 129.5,314.5 C 129.5,315.833 129.5,317.167 129.5,318.5C 127.478,320.531 125.811,322.865 124.5,325.5C 124.167,325.5 123.833,325.5 123.5,325.5C 123.5,324.5 123.5,323.5 123.5,322.5C 125.147,319.527 127.147,316.86 129.5,314.5 Z"/></g>
    <g><path style="opacity:1" fill="#a2e8ae" d="M 381.5,319.5 C 383.833,319.833 385.167,321.167 385.5,323.5C 383.659,322.598 382.326,321.264 381.5,319.5 Z"/></g>
    <g><path style="opacity:1" fill="#b9edbf" d="M 183.5,285.5 C 182.102,288.851 180.602,292.184 179,295.5C 171.111,306.746 163.945,318.412 157.5,330.5C 155.5,332.833 153.5,335.167 151.5,337.5C 153.108,333.248 155.108,329.248 157.5,325.5C 158.458,325.047 159.292,324.381 160,323.5C 164.782,313.581 170.282,304.248 176.5,295.5C 178.329,291.851 180.663,288.518 183.5,285.5 Z"/></g>
    <g><path style="opacity:1" fill="#2db745" d="M 380.5,314.5 C 383.548,316.459 386.381,318.792 389,321.5C 391.762,325.867 393.929,330.534 395.5,335.5C 391.733,332.739 388.733,329.406 386.5,325.5C 385.662,325.158 385.328,324.492 385.5,323.5C 385.167,321.167 383.833,319.833 381.5,319.5C 381.634,317.708 381.301,316.042 380.5,314.5 Z"/></g>
    <g><path style="opacity:1" fill="#78d386" d="M 123.5,325.5 C 122.295,329.678 120.295,333.345 117.5,336.5C 118.776,332.279 120.776,328.612 123.5,325.5 Z"/></g>
    <g><path style="opacity:1" fill="#a4e6ae" d="M 386.5,325.5 C 388.733,329.406 391.733,332.739 395.5,335.5C 395.704,337.685 396.37,339.685 397.5,341.5C 394.768,337.608 391.602,333.942 388,330.5C 387.392,328.846 386.892,327.179 386.5,325.5 Z"/></g>
    <g><path style="opacity:1" fill="#e2fade" d="M 123.5,322.5 C 123.5,323.5 123.5,324.5 123.5,325.5C 120.776,328.612 118.776,332.279 117.5,336.5C 114.833,340.5 112.167,344.5 109.5,348.5C 110.409,343.342 111.909,338.342 114,333.5C 116.712,329.388 119.878,325.722 123.5,322.5 Z"/></g>
    <g><path style="opacity:1" fill="#7cd588" d="M 149.5,341.5 C 147.374,344.959 145.707,348.626 144.5,352.5C 143.833,352.833 143.167,353.167 142.5,353.5C 143.379,348.624 145.713,344.624 149.5,341.5 Z"/></g>
    <g><path style="opacity:1" fill="#b0eab5" d="M 397.5,341.5 C 399.858,344.546 401.858,347.879 403.5,351.5C 402.833,351.5 402.167,351.5 401.5,351.5C 401.649,350.448 401.483,349.448 401,348.5C 398.259,346.933 397.092,344.599 397.5,341.5 Z"/></g>
    <g><path style="opacity:1" fill="#effeef" d="M 254.5,230.5 C 256.479,232.168 258.812,232.834 261.5,232.5C 261.5,273.5 261.5,314.5 261.5,355.5C 222.165,355.667 182.832,355.5 143.5,355C 144.252,354.329 144.586,353.496 144.5,352.5C 145.707,348.626 147.374,344.959 149.5,341.5C 149.527,339.801 150.194,338.467 151.5,337.5C 153.5,335.167 155.5,332.833 157.5,330.5C 155.704,334.387 154.204,338.387 153,342.5C 151.71,344.792 150.043,346.792 148,348.5C 147.505,350.473 147.338,352.473 147.5,354.5C 185.136,353.518 222.803,353.185 260.5,353.5C 260.438,313.551 260.438,273.551 260.5,233.5C 258.801,233.66 257.134,233.494 255.5,233C 254.748,232.329 254.414,231.496 254.5,230.5 Z"/></g>
    <g><path style="opacity:1" fill="#e6fde9" d="M 267.5,232.5 C 267.5,271.5 267.5,310.5 267.5,349.5C 267.33,350.822 267.663,351.989 268.5,353C 290.667,353.167 312.833,353.333 335,353.5C 357.51,353.5 379.677,352.833 401.5,351.5C 402.167,351.5 402.833,351.5 403.5,351.5C 403.557,352.609 403.89,353.609 404.5,354.5C 359.003,355.499 313.336,355.832 267.5,355.5C 266.167,314.5 266.167,273.5 267.5,232.5 Z"/></g>
    <g><path style="opacity:1" fill="#cbf2cd" d="M 248.5,225.5 C 253.216,227.858 257.882,230.191 262.5,232.5C 262.5,273.833 262.5,315.167 262.5,356.5C 262.167,356.5 261.833,356.5 261.5,356.5C 221.833,356.5 182.167,356.5 142.5,356.5C 142.5,355.5 142.5,354.5 142.5,353.5C 143.167,353.167 143.833,352.833 144.5,352.5C 144.586,353.496 144.252,354.329 143.5,355C 182.832,355.5 222.165,355.667 261.5,355.5C 261.5,314.5 261.5,273.5 261.5,232.5C 258.812,232.834 256.479,232.168 254.5,230.5C 251.891,229.557 249.891,227.89 248.5,225.5 Z"/></g>
    <g><path style="opacity:1" fill="#8dd697" d="M 142.5,353.5 C 142.5,354.5 142.5,355.5 142.5,356.5C 182.167,356.5 221.833,356.5 261.5,356.5C 221.67,357.499 181.67,357.832 141.5,357.5C 141.232,355.901 141.566,354.568 142.5,353.5 Z"/></g>
    <g><path style="opacity:1" fill="#94da9d" d="M 272.5,229.5 C 271.198,231.028 269.531,232.028 267.5,232.5C 266.167,273.5 266.167,314.5 267.5,355.5C 313.335,356.831 359.335,356.831 405.5,355.5C 405.376,354.893 405.043,354.56 404.5,354.5C 403.89,353.609 403.557,352.609 403.5,351.5C 406.349,352.92 407.016,354.92 405.5,357.5C 359.165,357.667 312.832,357.5 266.5,357C 265.944,356.617 265.611,356.117 265.5,355.5C 265.5,314.833 265.5,274.167 265.5,233.5C 265.5,232.833 265.5,232.167 265.5,231.5C 267.479,229.832 269.812,229.166 272.5,229.5 Z"/></g>
    <g><path style="opacity:1" fill="#cdf3d1" d="M 404.5,354.5 C 405.043,354.56 405.376,354.893 405.5,355.5C 359.335,356.831 313.335,356.831 267.5,355.5C 313.336,355.832 359.003,355.499 404.5,354.5 Z"/></g>
    <g><path style="opacity:1" fill="#3fc055" d="M 265.5,355.5 C 265.611,356.117 265.944,356.617 266.5,357C 312.832,357.5 359.165,357.667 405.5,357.5C 317.5,358.833 229.5,358.833 141.5,357.5C 181.67,357.832 221.67,357.499 261.5,356.5C 261.833,356.5 262.167,356.5 262.5,356.5C 263.391,355.89 264.391,355.557 265.5,355.5 Z"/></g>
    <g><path style="opacity:1" fill="#c5f4c6" d="M 109.5,349.5 C 107.757,351.924 106.424,354.591 105.5,357.5C 102.11,361.558 99.11,365.891 96.5,370.5C 96.3433,369.127 96.51,367.793 97,366.5C 98.7658,364.404 100.099,362.071 101,359.5C 103.632,355.838 106.466,352.505 109.5,349.5 Z"/></g>
    <g><path style="opacity:1" fill="#6dce75" d="M 105.5,357.5 C 105.554,360.967 104.054,363.634 101,365.5C 99.1598,368.263 97.8265,371.263 97,374.5C 95.8873,375.305 94.7206,375.972 93.5,376.5C 94.5082,374.456 95.5082,372.456 96.5,370.5C 99.11,365.891 102.11,361.558 105.5,357.5 Z"/></g>
    <g><path style="opacity:1" fill="#85d28f" d="M 432.5,375.5 C 433.338,375.842 433.672,376.508 433.5,377.5C 426.352,378.492 419.019,378.825 411.5,378.5C 401.5,378.5 391.5,378.5 381.5,378.5C 381.5,378.167 381.5,377.833 381.5,377.5C 398.67,377.135 415.67,376.468 432.5,375.5 Z"/></g>
    <g><path style="opacity:1" fill="#25b93f" d="M 431.5,374.5 C 432.167,374.5 432.5,374.833 432.5,375.5C 415.67,376.468 398.67,377.135 381.5,377.5C 354.716,378.845 328.05,379.845 301.5,380.5C 301.5,380.833 301.5,381.167 301.5,381.5C 290.167,381.5 278.833,381.5 267.5,381.5C 246.833,381.5 226.167,381.5 205.5,381.5C 253.18,379.171 301.18,378.004 349.5,378C 358.632,376.007 367.966,374.84 377.5,374.5C 395.657,375.786 413.657,375.786 431.5,374.5 Z"/></g>
    <g><path style="opacity:1" fill="#23b83f" d="M 123.5,325.5 C 123.833,325.5 124.167,325.5 124.5,325.5C 123.468,330.375 121.301,334.708 118,338.5C 116.539,343.419 114.539,348.086 112,352.5C 110.846,353.743 109.512,354.743 108,355.5C 106.635,361.197 103.968,366.197 100,370.5C 98.177,373.242 97.677,376.075 98.5,379C 107.518,379.168 116.518,379.668 125.5,380.5C 114.583,382.882 103.583,383.549 92.5,382.5C 92.5,383.5 92.5,384.5 92.5,385.5C 108.833,385.5 125.167,385.5 141.5,385.5C 125.005,386.662 108.338,386.828 91.5,386C 90.9781,385.439 90.6448,384.772 90.5,384C 91.741,382.269 92.741,380.436 93.5,378.5C 93.5,377.833 93.5,377.167 93.5,376.5C 94.7206,375.972 95.8873,375.305 97,374.5C 97.8265,371.263 99.1598,368.263 101,365.5C 104.054,363.634 105.554,360.967 105.5,357.5C 106.424,354.591 107.757,351.924 109.5,349.5C 109.5,349.167 109.5,348.833 109.5,348.5C 112.167,344.5 114.833,340.5 117.5,336.5C 120.295,333.345 122.295,329.678 123.5,325.5 Z"/></g>
    <g><path style="opacity:1" fill="#61cc71" d="M 381.5,377.5 C 381.5,377.833 381.5,378.167 381.5,378.5C 354.989,380.245 328.323,380.912 301.5,380.5C 328.05,379.845 354.716,378.845 381.5,377.5 Z"/></g>
    <g><path style="opacity:1" fill="#c7f1c4" d="M 381.5,378.5 C 391.5,378.5 401.5,378.5 411.5,378.5C 375.036,381.02 338.37,382.02 301.5,381.5C 301.5,381.167 301.5,380.833 301.5,380.5C 328.323,380.912 354.989,380.245 381.5,378.5 Z"/></g>
    <g><path style="opacity:1" fill="#50c564" d="M 205.5,381.5 C 226.167,381.5 246.833,381.5 267.5,381.5C 266.833,382.167 266.167,382.833 265.5,383.5C 264.833,383.5 264.167,383.5 263.5,383.5C 262.833,383.5 262.167,383.5 261.5,383.5C 242.997,382.425 224.33,382.425 205.5,383.5C 205.5,382.833 205.5,382.167 205.5,381.5 Z"/></g>
    <g><path style="opacity:1" fill="#edfbe8" d="M 433.5,377.5 C 434.043,377.56 434.376,377.893 434.5,378.5C 384.899,381.933 335.233,383.6 285.5,383.5C 290.833,382.833 296.167,382.167 301.5,381.5C 338.37,382.02 375.036,381.02 411.5,378.5C 419.019,378.825 426.352,378.492 433.5,377.5 Z"/></g>
    <g><path style="opacity:1" fill="#54c468" d="M 205.5,383.5 C 189.5,384.167 173.5,384.833 157.5,385.5C 152.167,385.5 146.833,385.5 141.5,385.5C 144.977,384.677 148.644,384.177 152.5,384C 170.164,383.5 187.83,383.333 205.5,383.5 Z"/></g>
    <g><path style="opacity:1" fill="#b4eab4" d="M 261.5,383.5 C 253.316,383.174 245.316,383.508 237.5,384.5C 210.842,385.333 184.176,385.667 157.5,385.5C 173.5,384.833 189.5,384.167 205.5,383.5C 224.33,382.425 242.997,382.425 261.5,383.5 Z"/></g>
    <g><path style="opacity:1" fill="#90df9b" d="M 93.5,378.5 C 92.741,380.436 91.741,382.269 90.5,384C 90.6448,384.772 90.9781,385.439 91.5,386C 108.338,386.828 125.005,386.662 141.5,385.5C 146.833,385.5 152.167,385.5 157.5,385.5C 157.5,385.833 157.5,386.167 157.5,386.5C 134.841,387.478 112.174,387.644 89.5,387C 88.6634,385.989 88.33,384.822 88.5,383.5C 89.7847,381.548 91.4514,379.882 93.5,378.5 Z"/></g>
    <g><path style="opacity:1" fill="#f5fced" d="M 237.5,384.5 C 237.389,385.117 237.056,385.617 236.5,386C 207.5,386.917 178.5,387.75 149.5,388.5C 152.167,387.833 154.833,387.167 157.5,386.5C 157.5,386.167 157.5,385.833 157.5,385.5C 184.176,385.667 210.842,385.333 237.5,384.5 Z"/></g>
    <g><path style="opacity:1" fill="#d2f6d5" d="M 88.5,383.5 C 88.33,384.822 88.6634,385.989 89.5,387C 112.174,387.644 134.841,387.478 157.5,386.5C 154.833,387.167 152.167,387.833 149.5,388.5C 130.139,388.191 110.806,388.524 91.5,389.5C 87.8057,388.639 86.8057,386.639 88.5,383.5 Z"/></g>
    <g><path style="opacity:1" fill="#afe7b2" d="M 267.5,381.5 C 278.833,381.5 290.167,381.5 301.5,381.5C 296.167,382.167 290.833,382.833 285.5,383.5C 279.5,383.5 273.5,383.5 267.5,383.5C 267.5,406.833 267.5,430.167 267.5,453.5C 265.5,453.5 263.5,453.5 261.5,453.5C 261.5,430.167 261.5,406.833 261.5,383.5C 262.167,383.5 262.833,383.5 263.5,383.5C 264.167,475.5 264.833,475.5 265.5,383.5C 266.167,382.833 266.833,382.167 267.5,381.5 Z"/></g>
    <g><path style="opacity:1" fill="#ebfeed" d="M 237.5,384.5 C 245.316,383.508 253.316,383.174 261.5,383.5C 261.5,406.833 261.5,430.167 261.5,453.5C 260.502,430.673 260.169,407.673 260.5,384.5C 252.833,384.5 245.167,384.5 237.5,384.5 Z"/></g>
    <g><path style="opacity:1" fill="#73c57a" d="M 263.5,383.5 C 264.167,383.5 264.833,383.5 265.5,383.5C 264.833,475.5 264.167,475.5 263.5,383.5 Z"/></g>
</svg>